<svg width="528" height="528" viewBox="0 0 528 528" fill="none" xmlns="http://www.w3.org/2000/svg">
<path d="M252.109 124.971C252.109 124.971 69.839 88.231 46.607 238.216C23.419 388.223 161.172 435.171 200.97 444.158C240.746 453.134 419.496 477.84 456.995 315.304C488.081 180.62 368.148 99.473 265.386 127.985L252.109 124.971Z" fill="#FF3D00" fill-opacity="0.45"/>
<path d="M265.386 127.985L252.109 124.982C252.109 124.982 119.196 98.274 65.934 183.92C83.49 194.634 112.277 207.207 112.277 207.207C132.121 215.765 151.195 220.121 168.971 220.121C186.527 220.121 202.609 215.952 216.601 208.043C221.21 230.296 233.926 253.704 263.527 271.788L285.032 284.922L295.152 261.833C303.633 242.473 307.857 226.336 308.891 211.816C320.276 217.547 332.948 221.21 346.786 221.21C363.385 221.21 380.171 215.963 396.671 205.645C396.671 205.645 418.33 193.138 432.212 182.567C394.471 133.144 326.876 110.924 265.386 127.985Z" fill="#DD2C00" fill-opacity="0.45"/>
<path d="M275 253.011C296.087 204.886 287.199 183.04 266.651 143C294.767 179.63 332.288 220.011 385 187.011C344.894 176.352 352.154 145.519 302.346 136.774C339.702 138.336 359.458 150.018 385 99.0111C344.784 120.175 321.288 73.7991 269.027 121.583C260.205 127.061 250.943 113.157 243.87 120.692C206.14 57.981 161.304 114.026 143 66.011C143 139.843 213.862 119.757 231 132.011C164.296 126.39 169.433 177.155 121 187.011C184.712 214.511 226.061 187.704 242.792 142.01C240.174 159.863 217.646 217.976 275 253.011Z" fill="#4CAF50"/>
<path d="M242.011 132.66C241.725 134.827 246.323 143 261.239 143C279.092 143 272.25 134.101 272.25 134.101C272.25 134.101 270.611 82.731 308 48.785C298.507 40.92 288.519 45.133 288.519 45.133C288.519 45.133 248.6 86.35 242.011 132.66Z" fill="#4CAF50"/>
</svg>
